# xmcd
#
# Track frame offsets:
#	150
#	15583
#	35103
#	47318
#	65767
#	82587
#	95905
#	108556
#	123667
#	155056
#	169824
#	182287
#	195703
#	221475
#	244246
#	254984
#	277815
#	292527
#	309300
#	323742
#	337799
#
# Disc length: 4768 seconds
#
# Revision: 0
# Processed by: cddbd v1.5.2PL0 Copyright (c) Steve Scherf et al.
# Submitted via: audiograbber 1.83.01
#
DISCID=25129e15
DTITLE=Poco - Fool's Gold - Best [Zounds]
DYEAR=2000
DGENRE=CountryRock
TTITLE0=Pickin' Up The Pieces
TTITLE1=A Good Feelin' To Know
TTITLE2=My Kind Of Love
TTITLE3=Hurry Up (Now Tell Me)
TTITLE4=Just For Me And You
TTITLE5=You Are The One [live]
TTITLE6=Go And Say Goodbye
TTITLE7=You Better Think Twice
TTITLE8=Anyway Bye Bye
TTITLE9=C'Mon [live]
TTITLE10=Just In Case It Happens, Yes Indeed
TTITLE11=Grand Junction
TTITLE12=Kind Woman [live]
TTITLE13=Bad Weather
TTITLE14=Fool's Gold
TTITLE15=Another Time Around
TTITLE16=First Love
TTITLE17=Faith In The Families
TTITLE18=I Guess You Made It
TTITLE19=Calico Lady
TTITLE20=Nothin's Still The Same
EXTD=
EXTT0=
EXTT1=
EXTT2=
EXTT3=
EXTT4=
EXTT5=
EXTT6=
EXTT7=
EXTT8=
EXTT9=
EXTT10=
EXTT11=
EXTT12=
EXTT13=
EXTT14=
EXTT15=
EXTT16=
EXTT17=
EXTT18=
EXTT19=
EXTT20=
PLAYORDER=
